<?xml version="1.0" encoding="utf-8"?>
<!-- Generator: Adobe Illustrator 22.1.0, SVG Export Plug-In . SVG Version: 6.00 Build 0)  -->
<svg version="1.1" id="Layer_1" xmlns="http://www.w3.org/2000/svg" xmlns:xlink="http://www.w3.org/1999/xlink" x="0px" y="0px"
	 viewBox="0 0 1000 1000" style="enable-background:new 0 0 1000 1000;" xml:space="preserve">
<style type="text/css">
	.st0{fill:#C60000;}
	.st1{fill:#FFFFFF;}
</style>
<g>
	<polygon class="st0" points="92.9,719.3 92.9,241.7 493.5,41.9 907.1,280.7 907.1,758.3 506.5,958.1 	"/>
	<path d="M493.5,42.4L906.6,281l0,477L506.5,957.6L93.4,719l0-477L493.5,42.4 M493.5,41.3L92.4,241.4l0,478.2l414.1,239.1
		l401.1-200.1l0-478.2L493.5,41.3L493.5,41.3z"/>
</g>
<g>
	<g id="XMLID_1_">
		<g>
			<path class="st1" d="M368.7,698.4c-4.4,4.7-9.1,6.3-14.9,4.1c-13.8-5.2-23.4-14.6-28.3-28.4c-1.8-5.2-0.7-9.2,3.6-13.1
				c21.4-19.6,42.4-39.6,63.6-59.4c23.3-21.7,46.6-43.4,69.9-65.1c25.7-24,51.5-48,77.2-72c8.9-8.3,17.6-16.7,26.7-24.8
				c2.7-2.4,2.6-4.1,1.1-6.8c-4.2-7.8-6.2-16.2-6.1-25.1c0.1-15.4,5-29.2,14.7-40.9c8.6-10.4,18.5-19.9,28.2-29.4
				c9-8.9,18.2-17.6,27.7-25.8c5.5-4.7,11.7-8.9,18-12.4c8.6-4.7,16-3.6,25.6,3c-3.8,3.9-7.4,7.9-11.2,11.8
				c-17.4,17.8-34.8,35.6-52.3,53.4c-5.9,6-5.9,10.9-0.1,15.2c3,2.3,6.3,2.7,9.3,0.3c6-4.7,11.8-9.5,17.6-14.3
				c15.6-13.1,31.1-26.2,46.7-39.3c2.7-2.3,5.5-4.6,8.2-7c1.5-1.4,2.7-1.7,4.3,0.1c2.3,2.6,4.8,5,7.4,7.3c1.8,1.6,2.1,2.9,0.4,4.9
				c-11.9,13.5-23.6,27-35.4,40.5c-8.3,9.6-16.7,19.2-25,28.9c-3.6,4.3-3.3,8.7,0.7,12.4c3.8,3.5,8.1,3.5,12.3-0.4
				c13-12.2,26-24.5,39-36.7c9.6-9.1,19.3-18.1,29.7-27.8c2.7,5,5.1,9.6,7.6,14.2c0,2.7,0,5.4,0,8.1c-7.3,18.5-21.6,31.8-35.1,45.7
				c-8.6,8.9-17.2,17.7-26.3,26.1c-16,14.8-34.7,23.5-57.2,21.7c-5.6-0.5-11.2-2.4-16.6-4.2c-2.5-0.8-3.8-0.5-5.4,1.3
				c-10.4,10.9-21,21.7-31.5,32.6c-20.2,20.9-40.4,41.9-60.6,62.8c-27.9,28.9-55.8,57.7-83.6,86.5
				C401.9,663.7,385.1,680.9,368.7,698.4z"/>
			<path class="st1" d="M628.6,703.4c-3.3,0.6-6.1-0.4-8.4-2.8c-19.2-19.9-38.4-39.7-57.6-59.5c-17.9-18.5-35.7-37.1-53.6-55.7
				c-0.8-0.9-1.6-1.8-2.6-3c10.5-10.9,20.9-21.7,31.6-32.7c6.6,6.2,13.1,12.2,19.6,18.3c32.6,30.3,65.1,60.6,97.7,90.9
				c8.1,7.5,9.1,10.6,3.1,21.5C652,692.1,642.5,700.8,628.6,703.4z"/>
			<path class="st1" d="M307,312.4c16.9-0.8,32.7,3.6,47.9,10.3c16.6,7.3,31.9,16.8,44.9,29.5c12.5,12.2,21.7,26.3,25.2,43.5
				c2.8,13.6,1.2,26.6-5.4,39c-1.1,2.2-1.2,3.4,0.8,5.2c19.1,17.6,38.1,35.5,57.1,53.2c0.7,0.7,1.3,1.4,2.1,2.2
				c-10.1,9.4-20,18.6-29.1,27.1c-5.7-5.1-11.6-9.7-16.8-15c-13.7-13.9-27.2-28.1-40.9-42.1c-0.8-0.8-3-1.2-4.1-0.7
				c-23.7,10.6-45.8,6.4-66.8-7.1c-21.9-14.1-35.6-34.7-46.3-57.5c-4.9-10.5-8.1-21.6-10.1-33c-0.2-0.9-0.5-1.9-0.7-2.8
				c0-4.7,0-9.4,0-14c0.8-2.8,1.7-5.6,2.5-8.4C272.6,323.3,289,313.3,307,312.4z"/>
		</g>
		<g>
		</g>
	</g>
</g>
</svg>
